<?xml version="1.0" encoding="utf-8"?>
<!-- Generator: Adobe Illustrator 22.1.0, SVG Export Plug-In . SVG Version: 6.00 Build 0)  -->
<svg version="1.1" id="Layer_1" xmlns="http://www.w3.org/2000/svg" xmlns:xlink="http://www.w3.org/1999/xlink" x="0px" y="0px"
	 viewBox="0 0 87.7 75.7" style="enable-background:new 0 0 87.7 75.7;" xml:space="preserve">
<style type="text/css">
	.st0{fill:#FFFFFF;}
</style>
<path class="st0" d="M39.5,73.2c-2.2,0-3.7-1.4-4.2-1.8L1.5,37.5l0.2-0.2l1.9-2L35.3,3.6c0.4-0.5,1.9-1.8,4.2-1.8
	c3.1,0,5.7,2.6,5.7,5.7c0,1.8-0.8,3.2-1.6,4L23.3,31.9h54.5c3.2,0,5.8,2.6,5.8,5.7s-2.6,5.7-5.7,5.7H23.3l20.3,20.3
	c0.8,0.8,1.6,2.2,1.6,4C45.2,70.7,42.7,73.2,39.5,73.2z"/>
<path d="M201.2,9.6L201.2,9.6h-61.8L164.7-16c0,0,0.7-0.6,0.7-1.8c0-1.5-1.2-2.7-2.7-2.7c-1.2,0-2,0.9-2,0.9L129,12.2h0.1H129
	L160.8,44c0,0,0.8,0.9,2,0.9c1.5,0,2.7-1.2,2.7-2.7c0-1.2-0.7-1.8-0.7-1.8L139.4,15h61.7h0.1c1.5,0,2.7-1.2,2.7-2.7
	S202.7,9.6,201.2,9.6z"/>
</svg>
