<?xml version="1.0" encoding="utf-8"?>
<!-- Generator: Adobe Illustrator 22.1.0, SVG Export Plug-In . SVG Version: 6.00 Build 0)  -->
<svg version="1.1" id="Layer_1" xmlns="http://www.w3.org/2000/svg" xmlns:xlink="http://www.w3.org/1999/xlink" x="0px" y="0px"
	 viewBox="0 0 318.4 320.6" style="enable-background:new 0 0 318.4 320.6;" xml:space="preserve">
<style type="text/css">
	.st0{fill:#DDDDDD;}
</style>
<path class="st0" d="M278.1,55.1c3.8,0,6.9,3.1,6.9,6.9v24.4c0,3.8-3.1,6.9-6.9,6.9H42.7c-3.8,0-6.9-3.1-6.9-6.9V62
	c0-3.8,3.1-6.9,6.9-6.9H278.1z"/>
<path class="st0" d="M278.1,132.5c3.8,0,6.9,3.1,6.9,6.9v24.4c0,3.8-3.1,6.9-6.9,6.9H42.7c-3.8,0-6.9-3.1-6.9-6.9v-24.4
	c0-3.8,3.1-6.9,6.9-6.9H278.1z"/>
<path class="st0" d="M278.1,209.9c3.8,0,6.9,3.1,6.9,6.9v24.4c0,3.8-3.1,6.9-6.9,6.9H42.7c-3.8,0-6.9-3.1-6.9-6.9v-24.4
	c0-3.8,3.1-6.9,6.9-6.9H278.1z"/>
</svg>
