<?xml version="1.0" encoding="utf-8"?>
<!-- Generator: Adobe Illustrator 24.0.1, SVG Export Plug-In . SVG Version: 6.00 Build 0)  -->
<svg version="1.1" id="Layer_1" xmlns="http://www.w3.org/2000/svg" xmlns:xlink="http://www.w3.org/1999/xlink" x="0px" y="0px"
	 viewBox="0 0 110 110" style="enable-background:new 0 0 110 110;" xml:space="preserve">
<style type="text/css">
	.st0{fill:#FFFFFF;}
</style>
<g>
	<g>
		<path class="st0" d="M28.5,31H2.5C1.1,31,0,29.9,0,28.5V2.5C0,1.1,1.1,0,2.5,0h26.1C29.9,0,31,1.1,31,2.5v26.1
			C31,29.9,29.9,31,28.5,31z"/>
	</g>
	<g>
		<path class="st0" d="M68,31H42c-1.4,0-2.5-1.1-2.5-2.5V2.5C39.5,1.1,40.6,0,42,0H68c1.4,0,2.5,1.1,2.5,2.5v26.1
			C70.5,29.9,69.4,31,68,31z"/>
	</g>
	<g>
		<path class="st0" d="M107.5,31H81.5c-1.4,0-2.5-1.1-2.5-2.5V2.5C79,1.1,80.1,0,81.5,0h26.1c1.4,0,2.5,1.1,2.5,2.5v26.1
			C110,29.9,108.9,31,107.5,31z"/>
	</g>
</g>
<g>
	<g>
		<path class="st0" d="M28.5,70.5H2.5C1.1,70.5,0,69.4,0,68V42c0-1.4,1.1-2.5,2.5-2.5h26.1c1.4,0,2.5,1.1,2.5,2.5V68
			C31,69.4,29.9,70.5,28.5,70.5z"/>
	</g>
	<g>
		<path class="st0" d="M68,70.5H42c-1.4,0-2.5-1.1-2.5-2.5V42c0-1.4,1.1-2.5,2.5-2.5H68c1.4,0,2.5,1.1,2.5,2.5V68
			C70.5,69.4,69.4,70.5,68,70.5z"/>
	</g>
	<g>
		<path class="st0" d="M107.5,70.5H81.5c-1.4,0-2.5-1.1-2.5-2.5V42c0-1.4,1.1-2.5,2.5-2.5h26.1c1.4,0,2.5,1.1,2.5,2.5V68
			C110,69.4,108.9,70.5,107.5,70.5z"/>
	</g>
</g>
<g>
	<g>
		<path class="st0" d="M28.5,110H2.5c-1.4,0-2.5-1.1-2.5-2.5V81.5C0,80.1,1.1,79,2.5,79h26.1c1.4,0,2.5,1.1,2.5,2.5v26.1
			C31,108.9,29.9,110,28.5,110z"/>
	</g>
	<g>
		<path class="st0" d="M68,110H42c-1.4,0-2.5-1.1-2.5-2.5V81.5c0-1.4,1.1-2.5,2.5-2.5H68c1.4,0,2.5,1.1,2.5,2.5v26.1
			C70.5,108.9,69.4,110,68,110z"/>
	</g>
	<g>
		<path class="st0" d="M107.5,110H81.5c-1.4,0-2.5-1.1-2.5-2.5V81.5c0-1.4,1.1-2.5,2.5-2.5h26.1c1.4,0,2.5,1.1,2.5,2.5v26.1
			C110,108.9,108.9,110,107.5,110z"/>
	</g>
</g>
</svg>
