<?xml version="1.0" encoding="utf-8"?>
<!-- Generator: Adobe Illustrator 22.1.0, SVG Export Plug-In . SVG Version: 6.00 Build 0)  -->
<svg version="1.1" id="Layer_1" xmlns="http://www.w3.org/2000/svg" xmlns:xlink="http://www.w3.org/1999/xlink" x="0px" y="0px"
	 viewBox="0 0 612 425.4" style="enable-background:new 0 0 612 425.4;" xml:space="preserve">
<style type="text/css">
	.st0{fill:#FFFFFF;}
</style>
<g>
	<path class="st0" d="M230.9,44.7c-45.9-21.3-106.3-28.1-130.6-28.1c-24.2,0-21.7,13.6-21.7,13.6L76,74.7
		c-6.5-1.4-16.6-3.7-25.9-6.2c-15.3-4.3-13.6,10.2-13.6,10.2S23.3,310.7,23.3,339c0,13.6,11.6,11.5,11.6,11.5L267,381.1
		c7.7,17,33.6,15.7,33.6,15.7V94.9C300.6,94.9,276.8,65.9,230.9,44.7z M152.2,326.2C119,324.9,43.7,339,43.7,339L59.9,83.8l15.7-2.4
		l-1.7,27.9c0,0-6.4,139.5-9.8,172.7c-3.4,33.2,17,27.2,17,27.2s-2.1-2.6,63.8,2.1c39.7,2.8,65.7,16.1,80.3,26.2
		C206.7,333.2,175.8,327.1,152.2,326.2z M286.6,349.2c0,0-15.7-16.2-63.4-41.7C175.6,282,90.5,282,90.5,282l13.2-240.3
		c0,0,46.4,2.1,95.3,17c42.9,13.1,87.6,57.4,87.6,57.4V349.2z"/>
	<path class="st0" d="M173.8,80.3c11.1,2.5,33.6,8.1,69.4,31.1c26.9,17.3,28.2,25,25.7,28.9c-2.6,3.8-7.8,9.2-18.5-2.7
		s-29.8-25.8-61-37.5c-31.9-12-53.1-11.6-53.1-11.6s-11.4-1.4-11.8-7.1s2.8-8,16-6.8C157.3,76.1,162.7,77.9,173.8,80.3z"/>
	<path class="st0" d="M173.8,130.9c11.1,2.5,33.6,8.1,69.4,31.1c26.9,17.3,28.2,25,25.7,28.9c-2.6,3.8-7.8,9.2-18.5-2.7
		c-10.6-11.9-29.8-25.8-61-37.5c-31.9-12-53.1-11.6-53.1-11.6s-11.4-1.4-11.8-7.1c-0.4-5.7,2.8-8,16-6.8
		C157.3,126.7,162.7,128.4,173.8,130.9z"/>
	<path class="st0" d="M173.8,180.9c11.1,2.5,33.6,8.1,69.4,31.1c26.9,17.3,28.2,25,25.7,28.9c-2.6,3.8-7.8,9.2-18.5-2.7
		c-10.6-11.9-29.8-25.8-61-37.5c-31.9-12-53.1-11.6-53.1-11.6s-11.4-1.4-11.8-7.1c-0.4-5.7,2.8-8,16-6.8
		C157.3,176.7,162.7,178.5,173.8,180.9z"/>
	<path class="st0" d="M173.8,231.3c11.1,2.5,33.6,8.1,69.4,31.1c26.9,17.3,28.2,25,25.7,28.9s-7.8,9.2-18.5-2.7s-29.8-25.8-61-37.5
		c-31.9-12-53.1-11.6-53.1-11.6s-11.4-1.4-11.8-7.1c-0.4-5.7,2.8-8,16-6.8C157.3,227.1,162.7,228.9,173.8,231.3z"/>
</g>
<g>
	<path class="st0" d="M300.3,94.9v301.9c0,0,25.9,1.3,33.6-15.7L566,350.5c0,0,11.6,2.1,11.6-11.5c0-28.2-13.2-260.3-13.2-260.3
		s1.7-14.5-13.6-10.2c-9.3,2.6-19.4,4.9-25.9,6.2l-2.6-44.5c0,0,2.6-13.6-21.7-13.6c-24.2,0-84.6,6.8-130.6,28.1
		C324.1,65.9,300.3,94.9,300.3,94.9z M375.7,337.5c14.5-10.1,40.6-23.4,80.3-26.2c65.9-4.7,63.8-2.1,63.8-2.1s20.4,6,17-27.2
		c-3.4-33.2-9.8-172.7-9.8-172.7l-1.7-27.9l15.7,2.4L557.2,339c0,0-75.3-14-108.4-12.8C425.1,327.1,394.2,333.2,375.7,337.5z
		 M314.4,116.1c0,0,44.7-44.3,87.6-57.4c48.9-14.9,95.3-17,95.3-17L510.4,282c0,0-85.1,0-132.7,25.5c-47.6,25.5-63.4,41.7-63.4,41.7
		V116.1z"/>
	<path class="st0" d="M427.2,80.3c-11.1,2.5-33.6,8.1-69.4,31.1c-26.9,17.3-28.2,25-25.7,28.9c2.6,3.8,7.8,9.2,18.5-2.7
		s29.8-25.8,61-37.5c31.9-12,53.1-11.6,53.1-11.6s11.4-1.4,11.8-7.1c0.4-5.7-2.8-8-16-6.8C443.6,76.1,438.2,77.9,427.2,80.3z"/>
	<path class="st0" d="M427.2,130.9c-11.1,2.5-33.6,8.1-69.4,31.1c-26.9,17.3-28.2,25-25.7,28.9c2.6,3.8,7.8,9.2,18.5-2.7
		c10.6-11.9,29.8-25.8,61-37.5c31.9-12,53.1-11.6,53.1-11.6s11.4-1.4,11.8-7.1c0.4-5.7-2.8-8-16-6.8
		C443.6,126.7,438.2,128.4,427.2,130.9z"/>
	<path class="st0" d="M427.2,180.9c-11.1,2.5-33.6,8.1-69.4,31.1c-26.9,17.3-28.2,25-25.7,28.9c2.6,3.8,7.8,9.2,18.5-2.7
		c10.6-11.9,29.8-25.8,61-37.5c31.9-12,53.1-11.6,53.1-11.6s11.4-1.4,11.8-7.1c0.4-5.7-2.8-8-16-6.8
		C443.6,176.7,438.2,178.5,427.2,180.9z"/>
	<path class="st0" d="M427.2,231.3c-11.1,2.5-33.6,8.1-69.4,31.1c-26.9,17.3-28.2,25-25.7,28.9s7.8,9.2,18.5-2.7s29.8-25.8,61-37.5
		c31.9-12,53.1-11.6,53.1-11.6s11.4-1.4,11.8-7.1c0.4-5.7-2.8-8-16-6.8C443.6,227.1,438.2,228.9,427.2,231.3z"/>
</g>
</svg>
