<?xml version="1.0" encoding="utf-8"?>
<!-- Generator: Adobe Illustrator 22.1.0, SVG Export Plug-In . SVG Version: 6.00 Build 0)  -->
<svg version="1.1" id="Layer_1" xmlns="http://www.w3.org/2000/svg" xmlns:xlink="http://www.w3.org/1999/xlink" x="0px" y="0px"
	 viewBox="0 0 50 50" style="enable-background:new 0 0 50 50;" xml:space="preserve">
<style type="text/css">
	.st0{fill:#FFFFFF;}
</style>
<path class="st0" d="M8.1,2.2c0-0.7,0.9-1.3,2.1-1.3h7.3c1.1,0,2.1,0.6,2.1,1.3v45.3c0,0.7-0.9,1.3-2.1,1.3h-7.3
	c-1.1,0-2.1-0.6-2.1-1.3V2.2z"/>
<path class="st0" d="M31.3,2.2c0-0.7,0.9-1.3,2.1-1.3h7.3c1.1,0,2.1,0.6,2.1,1.3v45.3c0,0.7-0.9,1.3-2.1,1.3h-7.3
	c-1.1,0-2.1-0.6-2.1-1.3V2.2z"/>
</svg>
