<?xml version="1.0" encoding="utf-8"?>
<!-- Generator: Adobe Illustrator 22.1.0, SVG Export Plug-In . SVG Version: 6.00 Build 0)  -->
<svg version="1.1" id="Layer_1" xmlns="http://www.w3.org/2000/svg" xmlns:xlink="http://www.w3.org/1999/xlink" x="0px" y="0px"
	 viewBox="0 0 80 80" style="enable-background:new 0 0 80 80;" xml:space="preserve">
<path d="M35.2,79h9.7c1.6,0,3-1.3,3-3V3.9c0-1.6-1.3-3-3-3h-9.7c-1.6,0-3,1.3-3,3v72.1C32.2,77.7,33.5,79,35.2,79z"/>
<path d="M1,35.2v9.7c0,1.6,1.3,3,3,3h72.1c1.6,0,3-1.3,3-3v-9.7c0-1.6-1.3-3-3-3H3.9C2.3,32.2,1,33.5,1,35.2z"/>
</svg>
