<?xml version="1.0" encoding="utf-8"?>
<!-- Generator: Adobe Illustrator 22.1.0, SVG Export Plug-In . SVG Version: 6.00 Build 0)  -->
<svg version="1.1" id="Layer_1" xmlns="http://www.w3.org/2000/svg" xmlns:xlink="http://www.w3.org/1999/xlink" x="0px" y="0px"
	 viewBox="0 0 80 80" style="enable-background:new 0 0 80 80;" xml:space="preserve">
<style type="text/css">
	.st0{fill:#969696;}
</style>
<path class="st0" d="M51,40l20-20c1.2-1.2,1.2-3,0-4.2L64.2,9c-1.2-1.2-3-1.2-4.2,0L40,29L20,9c-1.2-1.2-3-1.2-4.2,0L9,15.8
	c-1.2,1.2-1.2,3,0,4.2l20,20L9,60c-1.2,1.2-1.2,3,0,4.2l6.9,6.9c1.2,1.2,3,1.2,4.2,0l20-20l20,20c1.2,1.2,3,1.2,4.2,0l6.9-6.9
	c1.2-1.2,1.2-3,0-4.2L51,40z"/>
</svg>
